<svg width="30" height="25" viewBox="0 0 30 25" fill="none" xmlns="http://www.w3.org/2000/svg">
<path d="M15 0C6.71563 0 0 5.53916 0 12.3722C0 19.2053 6.71563 24.7445 15 24.7445C23.2844 24.7445 30 19.2053 30 12.3722C30 5.53916 23.2844 0 15 0ZM23.6549 11.4937C22.9444 12.1677 22.0098 12.6549 20.9668 12.8949C19.9239 13.1349 18.8185 13.1171 17.7876 12.8438L10.3702 19.8804C9.98869 20.2352 9.45279 20.4513 8.87905 20.4819C8.30531 20.5124 7.74017 20.3548 7.30657 20.0434C6.87298 19.732 6.60601 19.292 6.56377 18.8191C6.52152 18.3461 6.70741 17.8786 7.08098 17.5181L14.5098 10.4748C14.0558 9.69427 13.881 8.82317 14.006 7.96363C14.1309 7.1041 14.5504 6.29177 15.2152 5.6219C15.88 4.95203 16.7626 4.45239 17.7595 4.18157C18.7564 3.91075 19.8262 3.87998 20.8435 4.09287L18.0002 6.82712L18.9291 9.05743L21.7394 9.5086L24.5879 6.76754C24.9815 7.54884 25.103 8.40526 24.9385 9.24041C24.774 10.0755 24.3302 10.8562 23.6569 11.4946L23.6549 11.4937Z" fill="#7BA7D7"/>
</svg>
