<svg width="24" height="24" viewBox="0 0 24 24" fill="none" xmlns="http://www.w3.org/2000/svg">
<path d="M12.125 1.04762V3.14286H7.375V19.9048H19.25V10.4762H21.625V20.9524C21.625 21.2302 21.4999 21.4967 21.2772 21.6932C21.0545 21.8896 20.7524 22 20.4375 22H6.1875C5.87256 22 5.57051 21.8896 5.34781 21.6932C5.12511 21.4967 5 21.2302 5 20.9524V2.09524C5 1.81739 5.12511 1.55093 5.34781 1.35446C5.57051 1.15799 5.87256 1.04762 6.1875 1.04762H12.125ZM14.5 6.28571C15.1299 6.28571 15.734 6.50646 16.1794 6.8994C16.6248 7.29233 16.875 7.82526 16.875 8.38095H14.5V6.28571ZM14.5 3.14286C16.0747 3.14286 17.5849 3.69473 18.6984 4.67706C19.8119 5.65939 20.4375 6.99172 20.4375 8.38095H18.0625C18.0625 7.54742 17.6872 6.74802 17.0191 6.15862C16.351 5.56922 15.4448 5.2381 14.5 5.2381V3.14286ZM14.5 0C17.0196 0 19.4359 0.882991 21.2175 2.45472C22.9991 4.02646 24 6.15819 24 8.38095H21.625C21.625 6.71388 20.8743 5.11508 19.5381 3.93628C18.2019 2.75748 16.3897 2.09524 14.5 2.09524V0Z" fill="#59DAEB" fill-opacity="0.8475"/>
</svg>
