<svg width="80" height="25" viewBox="0 0 80 25" fill="none" xmlns="http://www.w3.org/2000/svg">
<path d="M69.7436 0H10.2564C4.59195 0 0 5.59644 0 12.5C0 19.4036 4.59195 25 10.2564 25H69.7436C75.4081 25 80 19.4036 80 12.5C80 5.59644 75.4081 0 69.7436 0Z" fill="#72C850"/>
<path d="M16.2596 13.6005C15.1875 13.2249 14.4063 12.7647 13.9158 12.2198C13.4297 11.6697 13.1867 10.9926 13.1867 10.1886C13.1867 9.27876 13.4839 8.52762 14.0786 7.93517C14.6776 7.33744 15.4545 7.03857 16.4094 7.03857C17.0603 7.03857 17.6398 7.19197 18.1476 7.49877C18.6597 7.80559 19.0547 8.22876 19.3325 8.76831C19.6146 9.30786 19.7557 9.89766 19.7557 10.5377H18.4992C18.4992 9.83947 18.3168 9.29199 17.9523 8.89526C17.5877 8.49325 17.0734 8.29224 16.4094 8.29224C15.793 8.29224 15.3112 8.45886 14.964 8.79211C14.6212 9.12007 14.4497 9.57764 14.4497 10.1648C14.4497 10.6356 14.6124 11.0349 14.938 11.3629C15.2678 11.6856 15.8256 11.9818 16.6111 12.2516C17.4011 12.5214 18.0174 12.8203 18.4601 13.1483C18.9071 13.4709 19.2371 13.8491 19.4497 14.2829C19.6667 14.7166 19.7752 15.227 19.7752 15.8142C19.7752 16.7505 19.4757 17.5016 18.8767 18.0676C18.2778 18.6284 17.4771 18.9087 16.4744 18.9087C15.8234 18.9087 15.2157 18.7579 14.6515 18.4564C14.0873 18.1496 13.6511 17.7317 13.3429 17.2027C13.0391 16.6737 12.8872 16.0734 12.8872 15.4016H14.1437C14.1437 16.0999 14.3542 16.6526 14.7752 17.0599C15.2005 17.462 15.767 17.663 16.4744 17.663C17.1342 17.663 17.6398 17.499 17.9913 17.171C18.3429 16.843 18.5187 16.3961 18.5187 15.8301C18.5187 15.2641 18.3559 14.8276 18.0304 14.5209C17.7048 14.2087 17.1146 13.902 16.2596 13.6005ZM25.7657 17.901C25.297 18.5727 24.609 18.9087 23.7019 18.9087C22.951 18.9087 22.3781 18.6442 21.9831 18.1152C21.5924 17.581 21.395 16.7927 21.3907 15.7507V10.1648H22.5951V15.711C22.5951 17.0124 23.0292 17.663 23.8972 17.663C24.8173 17.663 25.4293 17.2451 25.7331 16.4093V10.1648H26.9376V18.75H25.7917L25.7657 17.901ZM31.8213 17.7106C32.2509 17.7106 32.6263 17.5519 32.9475 17.2345C33.2686 16.9171 33.4466 16.5204 33.4814 16.0442H34.6206C34.599 16.5362 34.4601 17.0044 34.204 17.4487C33.9479 17.8931 33.6051 18.2475 33.1754 18.512C32.75 18.7765 32.2986 18.9087 31.8213 18.9087C30.862 18.9087 30.0981 18.5199 29.5296 17.7423C28.9653 16.9594 28.6832 15.8909 28.6832 14.5367V14.2907C28.6832 13.455 28.8091 12.7117 29.0607 12.0612C29.3125 11.4105 29.6727 10.9053 30.1416 10.5456C30.6146 10.1859 31.1723 10.0061 31.8147 10.0061C32.6046 10.0061 33.26 10.2944 33.7808 10.871C34.306 11.4475 34.586 12.196 34.6206 13.1165H33.4814C33.4466 12.561 33.2731 12.1061 32.9605 11.7517C32.6523 11.392 32.2704 11.2122 31.8147 11.2122C31.2027 11.2122 30.7274 11.4819 30.389 12.0215C30.0547 12.5557 29.8876 13.3307 29.8876 14.3464V14.624C29.8876 15.6132 30.0547 16.3749 30.389 16.9091C30.7231 17.4435 31.2005 17.7106 31.8213 17.7106ZM39.0226 17.7106C39.4523 17.7106 39.8277 17.5519 40.1488 17.2345C40.4701 16.9171 40.648 16.5204 40.6828 16.0442H41.8221C41.8003 16.5362 41.6615 17.0044 41.4054 17.4487C41.1494 17.8931 40.8065 18.2475 40.3767 18.512C39.9514 18.7765 39.5 18.9087 39.0226 18.9087C38.0634 18.9087 37.2995 18.5199 36.7309 17.7423C36.1667 16.9594 35.8845 15.8909 35.8845 14.5367V14.2907C35.8845 13.455 36.0105 12.7117 36.2622 12.0612C36.5139 11.4105 36.8742 10.9053 37.3429 10.5456C37.816 10.1859 38.3738 10.0061 39.0161 10.0061C39.806 10.0061 40.4614 10.2944 40.9822 10.871C41.5074 11.4475 41.7873 12.196 41.8221 13.1165H40.6828C40.648 12.561 40.4744 12.1061 40.1619 11.7517C39.8538 11.392 39.4718 11.2122 39.0161 11.2122C38.4041 11.2122 37.9289 11.4819 37.5903 12.0215C37.2561 12.5557 37.0891 13.3307 37.0891 14.3464V14.624C37.0891 15.6132 37.2561 16.3749 37.5903 16.9091C37.9245 17.4435 38.402 17.7106 39.0226 17.7106ZM46.3217 18.9087C45.3668 18.9087 44.5899 18.5279 43.9909 17.7661C43.3919 16.9991 43.0924 15.9755 43.0924 14.6954V14.4256C43.0924 13.574 43.2248 12.815 43.4896 12.1484C43.7587 11.4766 44.1319 10.953 44.6094 10.5774C45.0912 10.1965 45.612 10.0061 46.1719 10.0061C47.0877 10.0061 47.7995 10.3737 48.3073 11.109C48.8151 11.8443 49.0691 12.8969 49.0691 14.267V14.8779H44.2969C44.3143 15.7242 44.5161 16.4092 44.9024 16.933C45.2929 17.4514 45.7878 17.7106 46.3868 17.7106C46.8121 17.7106 47.1723 17.6048 47.4675 17.3933C47.7626 17.1816 48.0208 16.9012 48.2422 16.5521L48.9779 17.2504C48.3876 18.3559 47.5022 18.9087 46.3217 18.9087ZM46.1719 11.2122C45.6858 11.2122 45.2778 11.429 44.9479 11.8628C44.6181 12.2913 44.4141 12.8942 44.3359 13.6719H47.8646V13.5608C47.8299 12.815 47.665 12.2384 47.3698 11.831C47.0747 11.4185 46.6754 11.2122 46.1719 11.2122ZM54.7925 16.4727C54.7925 16.076 54.6688 15.7692 54.4215 15.5524C54.1784 15.3302 53.7509 15.1397 53.1389 14.9811C52.5313 14.8224 52.0473 14.632 51.6871 14.4097C51.3312 14.1876 51.0664 13.9231 50.8928 13.6164C50.7235 13.3095 50.6389 12.9445 50.6389 12.5214C50.6389 11.8178 50.882 11.2227 51.3681 10.7361C51.8585 10.2494 52.4835 10.0061 53.2431 10.0061C54.0417 10.0061 54.6884 10.2574 55.1832 10.7599C55.6823 11.2624 55.9319 11.9051 55.9319 12.688H54.721C54.721 12.286 54.5799 11.9395 54.2978 11.6486C54.02 11.3576 53.6684 11.2122 53.2431 11.2122C52.8047 11.2122 52.4619 11.3285 52.2144 11.5613C51.967 11.794 51.8433 12.0982 51.8433 12.4737C51.8433 12.8281 51.9584 13.0952 52.1884 13.2751C52.4184 13.455 52.833 13.6269 53.4319 13.7909C54.0352 13.9549 54.5235 14.1506 54.8967 14.378C55.27 14.6055 55.5456 14.8806 55.7235 15.2032C55.9059 15.5206 55.9969 15.9094 55.9969 16.3696C55.9969 17.1366 55.7453 17.7529 55.2418 18.2184C54.7383 18.6786 54.0851 18.9087 53.2822 18.9087C52.7179 18.9087 52.2188 18.787 51.7847 18.5437C51.3507 18.3004 51.01 17.9619 50.7626 17.5281C50.5195 17.089 50.3981 16.6156 50.3981 16.1077H51.6025C51.6241 16.5997 51.7847 16.9911 52.0842 17.2821C52.388 17.5677 52.7873 17.7106 53.2822 17.7106C53.7379 17.7106 54.1025 17.5995 54.3759 17.3774C54.6537 17.1499 54.7925 16.8484 54.7925 16.4727ZM61.8898 16.4727C61.8898 16.076 61.7661 15.7692 61.5187 15.5524C61.2756 15.3302 60.8481 15.1397 60.2361 14.9811C59.6285 14.8224 59.1445 14.632 58.7843 14.4097C58.4284 14.1876 58.1636 13.9231 57.9901 13.6164C57.8207 13.3095 57.7361 12.9445 57.7361 12.5214C57.7361 11.8178 57.9792 11.2227 58.4653 10.7361C58.9557 10.2494 59.5807 10.0061 60.3403 10.0061C61.1389 10.0061 61.7857 10.2574 62.2804 10.7599C62.7795 11.2624 63.0292 11.9051 63.0292 12.688H61.8182C61.8182 12.286 61.6772 11.9395 61.395 11.6486C61.1173 11.3576 60.7657 11.2122 60.3403 11.2122C59.902 11.2122 59.5591 11.3285 59.3116 11.5613C59.0642 11.794 58.9405 12.0982 58.9405 12.4737C58.9405 12.8281 59.0556 13.0952 59.2857 13.2751C59.5156 13.455 59.9302 13.6269 60.5292 13.7909C61.1324 13.9549 61.6206 14.1506 61.994 14.378C62.3672 14.6055 62.6428 14.8806 62.8207 15.2032C63.0031 15.5206 63.0942 15.9094 63.0942 16.3696C63.0942 17.1366 62.8425 17.7529 62.339 18.2184C61.8355 18.6786 61.1823 18.9087 60.3794 18.9087C59.8151 18.9087 59.316 18.787 58.882 18.5437C58.4479 18.3004 58.1072 17.9619 57.8598 17.5281C57.6167 17.089 57.4952 16.6156 57.4952 16.1077H58.6997C58.7214 16.5997 58.882 16.9911 59.1815 17.2821C59.4853 17.5677 59.8845 17.7106 60.3794 17.7106C60.8351 17.7106 61.1997 17.5995 61.4732 17.3774C61.7509 17.1499 61.8898 16.8484 61.8898 16.4727ZM66.2331 15.4889H65.1459L65.0613 7.19726H66.3242L66.2331 15.4889ZM65.0156 18.0121C65.0156 17.774 65.0743 17.5756 65.1914 17.417C65.313 17.253 65.4909 17.171 65.7253 17.171C65.9596 17.171 66.1376 17.253 66.2591 17.417C66.3806 17.5756 66.4415 17.774 66.4415 18.0121C66.4415 18.2501 66.3806 18.4485 66.2591 18.6071C66.1376 18.7606 65.9596 18.8372 65.7253 18.8372C65.4909 18.8372 65.313 18.7606 65.1914 18.6071C65.0743 18.4485 65.0156 18.2501 65.0156 18.0121Z" fill="white"/>
</svg>
