<svg width="24" height="24" viewBox="0 0 24 24" fill="none" xmlns="http://www.w3.org/2000/svg">
<path d="M2.4 12.5H6C6.63652 12.5 7.24697 12.7634 7.69706 13.2322C8.14714 13.7011 8.4 14.337 8.4 15V21.25C8.4 21.913 8.14714 22.5489 7.69706 23.0178C7.24697 23.4866 6.63652 23.75 6 23.75H2.4C1.76348 23.75 1.15303 23.4866 0.702944 23.0178C0.252856 22.5489 0 21.913 0 21.25V12.5C0 5.59625 5.3724 0 12 0C18.6276 0 24 5.59625 24 12.5V21.25C24 21.913 23.7471 22.5489 23.2971 23.0178C22.847 23.4866 22.2365 23.75 21.6 23.75H18C17.3635 23.75 16.753 23.4866 16.3029 23.0178C15.8529 22.5489 15.6 21.913 15.6 21.25V15C15.6 14.337 15.8529 13.7011 16.3029 13.2322C16.753 12.7634 17.3635 12.5 18 12.5H21.6C21.6 9.84783 20.5886 7.3043 18.7882 5.42893C16.9879 3.55357 14.5461 2.5 12 2.5C9.45392 2.5 7.01212 3.55357 5.21178 5.42893C3.41143 7.3043 2.4 9.84783 2.4 12.5Z" fill="#3AA5E1"/>
</svg>
