<svg width="32" height="34" viewBox="0 0 32 34" fill="none" xmlns="http://www.w3.org/2000/svg">
<path d="M16 18.2001C18.2091 18.2001 20 16.3196 20 14.0001C20 11.6805 18.2091 9.80005 16 9.80005C13.7909 9.80005 12 11.6805 12 14.0001C12 16.3196 13.7909 18.2001 16 18.2001Z" stroke="#F8F8F8" stroke-width="2" stroke-linecap="round" stroke-linejoin="round"/>
<path d="M16 2.80005C13.171 2.80005 10.4579 3.98005 8.45754 6.08045C6.45715 8.18086 5.33334 11.0296 5.33334 14C5.33334 16.6488 5.86934 18.382 7.33334 20.3L16 30.8L24.6667 20.3C26.1307 18.382 26.6667 16.6488 26.6667 14C26.6667 11.0296 25.5429 8.18086 23.5425 6.08045C21.5421 3.98005 18.829 2.80005 16 2.80005V2.80005Z" stroke="#F8F8F8" stroke-width="2" stroke-linecap="round" stroke-linejoin="round"/>
</svg>
