<svg width="24" height="24" viewBox="0 0 24 24" fill="none" xmlns="http://www.w3.org/2000/svg">
<path d="M23.5447 12.8198L13.5489 2.24093C13.4769 2.16456 13.3914 2.10396 13.2973 2.06262C13.2032 2.02128 13.1023 2 13.0005 2C12.8986 2 12.7977 2.02128 12.7036 2.06262C12.6095 2.10396 12.524 2.16456 12.452 2.24093L2.45623 12.8198C2.16502 13.1282 2 13.5471 2 13.984C2 14.8913 2.69648 15.629 3.55312 15.629H4.60633V23.1775C4.60633 23.6325 4.95335 24 5.38289 24H11.4473V18.2428H14.1653V24H20.618C21.0476 24 21.3946 23.6325 21.3946 23.1775V15.629H22.4478C22.8603 15.629 23.2559 15.4568 23.5471 15.1458C24.1514 14.5032 24.1514 13.4623 23.5447 12.8198Z" fill="#3AA5E1"/>
</svg>
