<svg width="24" height="24" viewBox="0 0 24 24" fill="none" xmlns="http://www.w3.org/2000/svg">
<path d="M12 1.71436C12.8797 1.71435 13.7256 2.05244 14.363 2.65869C15.0004 3.26494 15.3803 4.09296 15.4243 4.9715L15.4286 5.14293L19.7143 5.14293C19.9328 5.14317 20.1429 5.22682 20.3018 5.3768C20.4606 5.52677 20.5562 5.73174 20.569 5.94984C20.5818 6.16793 20.5109 6.38268 20.3706 6.55021C20.2304 6.71774 20.0315 6.82541 19.8146 6.85121L19.7143 6.85721L18.9866 6.85721L17.9752 19.3312C17.9099 20.1361 17.5441 20.887 16.9504 21.4345C16.3567 21.9819 15.5787 22.2858 14.7712 22.2858L9.22887 22.2858C8.42131 22.2858 7.64332 21.9819 7.04965 21.4345C6.45597 20.887 6.09013 20.1361 6.02487 19.3312L5.01259 6.85721L4.28573 6.85721C4.07579 6.85718 3.87316 6.78011 3.71627 6.6406C3.55938 6.50109 3.45915 6.30886 3.43459 6.10036L3.42859 6.00007C3.42862 5.79013 3.50569 5.5875 3.6452 5.43061C3.78471 5.27372 3.97695 5.17349 4.18545 5.14893L4.28573 5.14293L8.57145 5.14293C8.57145 4.23361 8.93267 3.36154 9.57565 2.71856C10.2186 2.07558 11.0907 1.71436 12 1.71436ZM10.0714 9.64293C9.9161 9.64293 9.76601 9.69919 9.64893 9.8013C9.53186 9.90341 9.45572 10.0445 9.43459 10.1984L9.42859 10.2858L9.42859 17.1429L9.43459 17.2304C9.45576 17.3842 9.53192 17.5252 9.64899 17.6273C9.76606 17.7294 9.91613 17.7856 10.0714 17.7856C10.2268 17.7856 10.3768 17.7294 10.4939 17.6273C10.611 17.5252 10.6871 17.3842 10.7083 17.2304L10.7143 17.1429L10.7143 10.2858L10.7083 10.1984C10.6872 10.0445 10.611 9.90341 10.494 9.8013C10.3769 9.69919 10.2268 9.64293 10.0714 9.64293ZM13.9286 9.64293C13.7732 9.64293 13.6232 9.69919 13.5061 9.8013C13.389 9.90341 13.3129 10.0445 13.2917 10.1984L13.2857 10.2858L13.2857 17.1429L13.2917 17.2304C13.3129 17.3842 13.3891 17.5252 13.5061 17.6273C13.6232 17.7294 13.7733 17.7856 13.9286 17.7856C14.0839 17.7856 14.234 17.7294 14.351 17.6273C14.4681 17.5252 14.5443 17.3842 14.5654 17.2304L14.5714 17.1429L14.5714 10.2858L14.5654 10.1984C14.5443 10.0445 14.4682 9.90341 14.3511 9.8013C14.234 9.69919 14.0839 9.64293 13.9286 9.64293ZM12 3.42864C11.5675 3.4285 11.151 3.59185 10.8338 3.88592C10.5167 4.18 10.3225 4.58308 10.29 5.01436L10.2857 5.14293L13.7143 5.14293L13.71 5.01436C13.6776 4.58308 13.4833 4.18 13.1662 3.88592C12.8491 3.59185 12.4325 3.4285 12 3.42864Z" fill="#699BF7"/>
</svg>
