<svg width="24" height="24" viewBox="0 0 24 24" fill="none" xmlns="http://www.w3.org/2000/svg">
<path d="M2.81338 15.4667L1.54671 20.9333C1.50302 21.1332 1.50451 21.3402 1.5511 21.5394C1.59768 21.7386 1.68817 21.9249 1.81595 22.0846C1.94374 22.2443 2.1056 22.3735 2.2897 22.4627C2.4738 22.5518 2.67549 22.5988 2.88005 22.6C2.97536 22.6096 3.0714 22.6096 3.16671 22.6L8.66671 21.3333L19.2267 10.8133L13.3334 4.93332L2.81338 15.4667Z" fill="#F8F8F8"/>
<path d="M22.5466 5.54667L18.6133 1.61333C18.3547 1.35604 18.0048 1.21161 17.64 1.21161C17.2752 1.21161 16.9252 1.35604 16.6666 1.61333L14.48 3.8L20.3666 9.68667L22.5533 7.5C22.6813 7.37139 22.7826 7.2188 22.8516 7.05098C22.9205 6.88315 22.9557 6.70338 22.955 6.52195C22.9544 6.34052 22.918 6.161 22.848 5.99365C22.7779 5.82629 22.6755 5.6744 22.5466 5.54667Z" fill="#F8F8F8"/>
</svg>
