<svg width="20" height="20" viewBox="0 0 20 20" fill="none" xmlns="http://www.w3.org/2000/svg">
<path d="M19.9998 0.749477C19.9997 0.632647 19.9675 0.517452 19.9058 0.413074C19.844 0.308697 19.7544 0.218024 19.6442 0.148283C19.5339 0.0785434 19.406 0.031665 19.2706 0.0113854C19.1353 -0.00889416 18.9962 -0.0020139 18.8645 0.0314774L7.09983 3.03148C6.91803 3.07772 6.75862 3.17254 6.64523 3.30188C6.53185 3.43122 6.47055 3.58818 6.47042 3.74948V13.6265C5.70723 13.1748 4.78665 12.9561 3.85855 13.0058C2.93045 13.0555 2.04948 13.3709 1.35908 13.9004C0.668673 14.43 0.209487 15.1426 0.0562754 15.9222C-0.0969365 16.7019 0.0648489 17.5027 0.515293 18.1942C0.965737 18.8857 1.67831 19.4273 2.53701 19.7307C3.39571 20.0341 4.34996 20.0816 5.24441 19.8653C6.13886 19.649 6.92083 19.1817 7.46302 18.5395C8.00521 17.8973 8.27569 17.118 8.23041 16.3285C8.2336 16.3022 8.23517 16.2759 8.23512 16.2495V8.30748L18.2351 5.75748V11.6275C17.4719 11.1758 16.5513 10.9571 15.6232 11.0068C14.6951 11.0565 13.8142 11.3719 13.1238 11.9014C12.4334 12.431 11.9742 13.1436 11.821 13.9232C11.6678 14.7029 11.8295 15.5037 12.28 16.1952C12.7304 16.8867 13.443 17.4283 14.3017 17.7317C15.1604 18.0351 16.1147 18.0826 17.0091 17.8663C17.9036 17.65 18.6855 17.1827 19.2277 16.5405C19.7699 15.8983 20.0404 15.119 19.9951 14.3295C19.9983 14.3029 19.9999 14.2762 19.9998 14.2495V0.749477Z" fill="#3AA5E1"/>
</svg>
