<svg width="288" height="190" viewBox="0 0 288 190" fill="none" xmlns="http://www.w3.org/2000/svg">
<path d="M28.9739 122.319L14.718 114.707C8.05324 111.148 0 115.977 0 123.532V175.575C0 183.311 6.27133 189.582 14.0074 189.582H273.993C281.797 189.582 288.096 183.204 287.999 175.4L287.478 133.559C287.39 126.466 278.942 122.83 273.73 127.641C255.675 144.305 226.843 140.025 214.407 118.834L206.31 105.037C198.229 91.266 182.152 84.3253 166.588 87.8882L165.195 88.207C154.046 90.7592 142.362 87.5251 134.112 79.6037C117.65 63.7978 90.5936 68.4141 80.3043 88.7841L69.9039 109.374C62.3094 124.409 43.8325 130.253 28.9739 122.319Z" fill="#67D8FC"/>
<line x1="101.46" y1="1.38573" x2="101.46" y2="179.05" stroke="#3AA5E1" stroke-width="2.77" stroke-linecap="round" stroke-linejoin="round" stroke-dasharray="0.1 13"/>
<line x1="56.0557" y1="1.38573" x2="56.0557" y2="179.05" stroke="#3AA5E1" stroke-width="2.77" stroke-linecap="round" stroke-linejoin="round" stroke-dasharray="0.1 13"/>
<line x1="146.863" y1="1.38573" x2="146.863" y2="179.05" stroke="#3AA5E1" stroke-width="2.77" stroke-linecap="round" stroke-linejoin="round" stroke-dasharray="0.1 13"/>
<line x1="192.267" y1="1.38573" x2="192.267" y2="179.05" stroke="#3AA5E1" stroke-width="2.77" stroke-linecap="round" stroke-linejoin="round" stroke-dasharray="0.1 13"/>
<line x1="237.671" y1="1.38573" x2="237.671" y2="179.05" stroke="#3AA5E1" stroke-width="2.77" stroke-linecap="round" stroke-linejoin="round" stroke-dasharray="0.1 13"/>
</svg>
