<svg width="24" height="24" viewBox="0 0 24 24" fill="none" xmlns="http://www.w3.org/2000/svg">
<path d="M22.58 5.54661L18.6667 1.61327C18.4081 1.35598 18.0581 1.21155 17.6933 1.21155C17.3285 1.21155 16.9786 1.35598 16.72 1.61327L2.84667 15.4666L1.58 20.9333C1.5363 21.1331 1.5378 21.3402 1.58438 21.5394C1.63097 21.7386 1.72146 21.9248 1.84924 22.0845C1.97703 22.2443 2.13888 22.3734 2.32298 22.4626C2.50708 22.5518 2.70878 22.5987 2.91333 22.5999C3.00865 22.6096 3.10469 22.6096 3.2 22.5999L8.72667 21.3333L22.58 7.49327C22.8373 7.23468 22.9817 6.88473 22.9817 6.51994C22.9817 6.15515 22.8373 5.8052 22.58 5.54661ZM8.06 20.1333L2.88 21.2199L4.06 16.1399L14.44 5.79994L18.44 9.79994L8.06 20.1333ZM19.3333 8.83327L15.3333 4.83327L17.6533 2.52661L21.5867 6.52661L19.3333 8.83327Z" fill="#F8F8F8"/>
</svg>
