<svg width="9" height="14" viewBox="0 0 9 14" fill="none" xmlns="http://www.w3.org/2000/svg">
<path d="M0.366676 0.368329C0.250441 0.484325 0.158225 0.622107 0.0953058 0.773787C0.0323867 0.925468 0 1.08807 0 1.25228C0 1.41649 0.0323867 1.57909 0.0953058 1.73077C0.158225 1.88245 0.250441 2.02023 0.366676 2.13623L5.23154 7.0011L0.366676 11.866C0.132237 12.1004 0.000530912 12.4184 0.000530912 12.7499C0.000530912 13.0815 0.132237 13.3994 0.366676 13.6339C0.601114 13.8683 0.919081 14 1.25063 14C1.58217 14 1.90014 13.8683 2.13458 13.6339L7.88967 7.87878C8.0059 7.76279 8.09812 7.625 8.16104 7.47332C8.22396 7.32164 8.25634 7.15904 8.25634 6.99483C8.25634 6.83062 8.22396 6.66802 8.16104 6.51634C8.09812 6.36466 8.0059 6.22688 7.88967 6.11088L2.13458 0.35579C1.65812 -0.120666 0.85567 -0.120666 0.366676 0.368329Z" fill="#F8F8F8"/>
</svg>
