<svg width="24" height="24" viewBox="0 0 24 24" fill="none" xmlns="http://www.w3.org/2000/svg">
<path d="M13.82 22H10.18C9.95193 22 9.7307 21.9221 9.553 21.7792C9.3753 21.6362 9.25181 21.4368 9.203 21.214L8.796 19.33C8.25306 19.0921 7.73823 18.7946 7.261 18.443L5.424 19.028C5.20656 19.0973 4.97195 19.0902 4.75912 19.0078C4.54629 18.9254 4.36805 18.7727 4.254 18.575L2.43 15.424C2.31714 15.2261 2.27478 14.9958 2.30984 14.7708C2.3449 14.5457 2.45531 14.3392 2.623 14.185L4.048 12.885C3.9832 12.2961 3.9832 11.7019 4.048 11.113L2.623 9.816C2.45507 9.66177 2.34451 9.45507 2.30945 9.22978C2.27438 9.00449 2.31689 8.77397 2.43 8.576L4.25 5.423C4.36405 5.22532 4.54229 5.07259 4.75512 4.99019C4.96795 4.90778 5.20256 4.90066 5.42 4.97L7.257 5.555C7.501 5.375 7.755 5.207 8.017 5.055C8.27 4.913 8.53 4.784 8.796 4.669L9.204 2.787C9.25257 2.5642 9.37583 2.36469 9.55335 2.22155C9.73086 2.07841 9.95196 2.00024 10.18 2H13.82C14.048 2.00024 14.2691 2.07841 14.4467 2.22155C14.6242 2.36469 14.7474 2.5642 14.796 2.787L15.208 4.67C15.488 4.794 15.762 4.933 16.027 5.088C16.274 5.231 16.513 5.388 16.743 5.557L18.581 4.972C18.7983 4.90292 19.0327 4.91017 19.2453 4.99256C19.4579 5.07495 19.636 5.22753 19.75 5.425L21.57 8.578C21.802 8.985 21.722 9.5 21.377 9.817L19.952 11.117C20.0168 11.7059 20.0168 12.3001 19.952 12.889L21.377 14.189C21.722 14.507 21.802 15.021 21.57 15.428L19.75 18.581C19.6359 18.7787 19.4577 18.9314 19.2449 19.0138C19.032 19.0962 18.7974 19.1033 18.58 19.034L16.743 18.449C16.2661 18.8003 15.7516 19.0975 15.209 19.335L14.796 21.214C14.7472 21.4366 14.6239 21.6359 14.4464 21.7788C14.2689 21.9218 14.0479 21.9998 13.82 22ZM11.996 8C10.9351 8 9.91772 8.42143 9.16757 9.17157C8.41743 9.92172 7.996 10.9391 7.996 12C7.996 13.0609 8.41743 14.0783 9.16757 14.8284C9.91772 15.5786 10.9351 16 11.996 16C13.0569 16 14.0743 15.5786 14.8244 14.8284C15.5746 14.0783 15.996 13.0609 15.996 12C15.996 10.9391 15.5746 9.92172 14.8244 9.17157C14.0743 8.42143 13.0569 8 11.996 8Z" fill="#F8F8F8"/>
</svg>
