<svg width="15" height="25" viewBox="0 0 15 25" fill="none" xmlns="http://www.w3.org/2000/svg">
<path fill-rule="evenodd" clip-rule="evenodd" d="M11.997 5.53002C11.997 5.57802 11.996 5.62602 11.993 5.67302C12.5797 5.87898 13.0879 6.26209 13.4475 6.76941C13.807 7.27674 14.0001 7.88321 14 8.50502L14 9.50502L15 9.50502L15 13.505L14 13.505L14 16.505C14 17.813 13.163 18.925 11.995 19.335C12.0181 19.7426 11.9578 20.1507 11.8178 20.5342C11.6777 20.9177 11.4609 21.2685 11.1805 21.5653C10.9001 21.8621 10.5621 22.0985 10.1872 22.2601C9.81223 22.4216 9.40827 22.505 9 22.505L5 22.505C4.59173 22.505 4.18777 22.4216 3.81284 22.2601C3.43791 22.0985 3.0999 21.8621 2.81952 21.5653C2.53914 21.2685 2.32228 20.9177 2.18223 20.5342C2.04217 20.1507 1.98187 19.7426 2.005 19.335C1.41899 19.1288 0.911407 18.7459 0.552281 18.239C0.193154 17.7321 0.000186055 17.1262 9.52494e-08 16.505L4.08602e-08 8.50502C3.19743e-08 7.19802 0.836 6.08502 2.003 5.67502C1.97837 5.26533 2.03806 4.85495 2.17839 4.46926C2.31872 4.08357 2.5367 3.73077 2.81883 3.4327C3.10097 3.13462 3.44127 2.89761 3.81868 2.73633C4.19609 2.57504 4.60258 2.49291 5.013 2.49502L9.013 2.51502C9.80848 2.51925 10.5697 2.83925 11.1293 3.40465C11.6889 3.97004 12.001 4.73454 11.997 5.53002ZM3.997 5.50502L9.997 5.50502C9.99438 5.2424 9.88855 4.99136 9.70237 4.80612C9.5162 4.62088 9.26463 4.51632 9.002 4.51502L5.002 4.49502C4.73696 4.49396 4.48233 4.59816 4.29407 4.78473C4.10581 4.9713 3.99932 5.22498 3.998 5.49002L3.998 5.50502L3.997 5.50502ZM11.205 7.52602L6.985 7.50502L3 7.50502C2.73478 7.50502 2.48043 7.61038 2.29289 7.79791C2.10536 7.98545 2 8.2398 2 8.50502L2 16.505C2 16.7701 2.10522 17.0243 2.29254 17.2118C2.47986 17.3993 2.73396 17.5048 2.999 17.505L11 17.505C11.265 17.5048 11.5191 17.3993 11.7065 17.2118C11.8938 17.0243 11.999 16.7701 11.999 16.505L11.999 8.50502C11.9991 8.27536 11.9201 8.05268 11.7753 7.8744C11.6305 7.69612 11.4288 7.5731 11.204 7.52602L11.205 7.52602ZM4 19.505C4 19.7702 4.10536 20.0246 4.29289 20.2121C4.48043 20.3997 4.73478 20.505 5 20.505L9 20.505C9.26522 20.505 9.51957 20.3997 9.70711 20.2121C9.89464 20.0246 10 19.7702 10 19.505L4 19.505Z" fill="#699BF7"/>
</svg>
