<svg width="24" height="24" viewBox="0 0 24 24" fill="none" xmlns="http://www.w3.org/2000/svg">
<path d="M12 3L2.25 5.25V6.75L12 4.5L21.75 6.75V5.25L12 3ZM7.5 7.5C5.07975 7.5 2.71875 8.48475 2.71875 8.48475L2.25 8.69475V20.25H10.7108C10.9718 20.6985 11.4458 21 12 21C12.5535 21 13.0282 20.6985 13.2892 20.25H21.75V8.6955L21.2812 8.48475C21.2812 8.48475 18.9202 7.5 16.5 7.5C14.3115 7.5 12.39 8.235 12 8.391C11.61 8.235 9.6885 7.5 7.5 7.5ZM7.5 9C8.9505 9 10.5 9.46875 11.25 9.72675V18.0705C10.4152 17.7952 9.04425 17.4142 7.5 17.4142C5.9235 17.4142 4.64025 17.7773 3.75 18.0705V9.72675C4.3275 9.5175 5.85 9 7.5 9ZM16.5 9C18.15 9 19.6725 9.51825 20.25 9.72675V18.0705C19.359 17.778 18.0765 17.4142 16.5 17.4142C14.9557 17.4142 13.5848 17.7952 12.75 18.0705V9.72675C13.5 9.46875 15.0495 9 16.5 9Z" fill="#F8F8F8"/>
</svg>
