<svg width="25" height="25" viewBox="0 0 25 25" fill="none" xmlns="http://www.w3.org/2000/svg">
<path d="M14.3958 22.9167H10.6041C10.3666 22.9167 10.1361 22.8355 9.95102 22.6866C9.76592 22.5377 9.63728 22.33 9.58644 22.0979L9.16248 20.1354C8.59692 19.8876 8.06064 19.5777 7.56352 19.2115L5.64998 19.8208C5.42348 19.8931 5.1791 19.8857 4.9574 19.7998C4.7357 19.714 4.55003 19.5549 4.43123 19.349L2.53123 16.0667C2.41367 15.8606 2.36955 15.6207 2.40607 15.3862C2.44259 15.1518 2.55759 14.9366 2.73227 14.7761L4.21665 13.4219C4.14914 12.8085 4.14914 12.1895 4.21665 11.5761L2.73227 10.225C2.55735 10.0644 2.44218 9.84905 2.40566 9.61437C2.36913 9.37969 2.41341 9.13956 2.53123 8.93334L4.42706 5.64897C4.54587 5.44305 4.73153 5.28396 4.95323 5.19812C5.17493 5.11229 5.41932 5.10487 5.64581 5.17709L7.55936 5.78647C7.81352 5.59897 8.07811 5.42397 8.35102 5.26564C8.61456 5.11772 8.8854 4.98334 9.16248 4.86355L9.58748 2.90314C9.63808 2.67105 9.76647 2.46323 9.95138 2.31412C10.1363 2.16502 10.3666 2.08359 10.6041 2.08334H14.3958C14.6334 2.08359 14.8637 2.16502 15.0486 2.31412C15.2335 2.46323 15.3619 2.67105 15.4125 2.90314L15.8416 4.86459C16.1333 4.99376 16.4187 5.13855 16.6948 5.30001C16.9521 5.44897 17.201 5.61251 17.4406 5.78855L19.3552 5.17918C19.5815 5.10721 19.8257 5.11477 20.0472 5.20059C20.2686 5.28642 20.4541 5.44535 20.5729 5.65105L22.4687 8.93543C22.7104 9.35939 22.6271 9.89584 22.2677 10.2261L20.7833 11.5802C20.8508 12.1936 20.8508 12.8126 20.7833 13.4261L22.2677 14.7802C22.6271 15.1115 22.7104 15.6469 22.4687 16.0708L20.5729 19.3552C20.4541 19.5611 20.2684 19.7202 20.0467 19.8061C19.825 19.8919 19.5806 19.8993 19.3541 19.8271L17.4406 19.2177C16.9439 19.5837 16.4079 19.8933 15.8427 20.1406L15.4125 22.0979C15.3617 22.3298 15.2332 22.5374 15.0483 22.6863C14.8634 22.8352 14.6332 22.9165 14.3958 22.9167ZM12.4958 8.33334C11.3907 8.33334 10.3309 8.77233 9.54954 9.55373C8.76814 10.3351 8.32915 11.3949 8.32915 12.5C8.32915 13.6051 8.76814 14.6649 9.54954 15.4463C10.3309 16.2277 11.3907 16.6667 12.4958 16.6667C13.6009 16.6667 14.6607 16.2277 15.4421 15.4463C16.2235 14.6649 16.6625 13.6051 16.6625 12.5C16.6625 11.3949 16.2235 10.3351 15.4421 9.55373C14.6607 8.77233 13.6009 8.33334 12.4958 8.33334Z" fill="#3AA5E1"/>
</svg>
