<svg width="24" height="24" viewBox="0 0 24 24" fill="none" xmlns="http://www.w3.org/2000/svg">
<g clip-path="url(#clip0_1_1035)">
<path d="M11.682 6.94966L3.99992 14.0676V21.75C3.99992 21.9489 4.07016 22.1397 4.19518 22.2803C4.32021 22.421 4.48978 22.5 4.66659 22.5L9.33576 22.4864C9.51199 22.4854 9.6807 22.4059 9.80501 22.2654C9.92931 22.1248 9.99909 21.9346 9.99909 21.7364V17.25C9.99909 17.0511 10.0693 16.8603 10.1944 16.7196C10.3194 16.579 10.4889 16.5 10.6658 16.5H13.3324C13.5092 16.5 13.6788 16.579 13.8038 16.7196C13.9289 16.8603 13.9991 17.0511 13.9991 17.25V21.7331C13.9988 21.8318 14.0159 21.9296 14.0492 22.0208C14.0826 22.1121 14.1317 22.1951 14.1936 22.2649C14.2555 22.3348 14.3291 22.3903 14.4102 22.4281C14.4912 22.466 14.578 22.4854 14.6658 22.4854L19.3333 22.5C19.5101 22.5 19.6796 22.421 19.8047 22.2803C19.9297 22.1397 19.9999 21.9489 19.9999 21.75V14.0625L12.3195 6.94966C12.2292 6.86778 12.1167 6.82313 12.0008 6.82313C11.8848 6.82313 11.7723 6.86778 11.682 6.94966ZM23.8166 11.7876L20.3333 8.55748V2.06482C20.3333 1.91564 20.2806 1.77256 20.1868 1.66707C20.093 1.56158 19.9659 1.50232 19.8333 1.50232H17.4999C17.3673 1.50232 17.2401 1.56158 17.1464 1.66707C17.0526 1.77256 16.9999 1.91564 16.9999 2.06482V5.46841L13.2695 2.0156C12.9115 1.68418 12.4623 1.50298 11.9987 1.50298C11.5351 1.50298 11.0858 1.68418 10.7278 2.0156L0.180756 11.7876C0.130126 11.8347 0.0882372 11.8926 0.0574839 11.9578C0.0267305 12.0231 0.00771508 12.0946 0.00152399 12.1682C-0.00466709 12.2418 0.00208754 12.316 0.0214019 12.3866C0.0407163 12.4572 0.072212 12.5229 0.114089 12.5798L1.17659 14.0329C1.21835 14.0901 1.26972 14.1374 1.32776 14.1721C1.38579 14.2069 1.44935 14.2285 1.51479 14.2356C1.58024 14.2427 1.64629 14.2352 1.70916 14.2135C1.77202 14.1918 1.83048 14.1565 1.88117 14.1094L11.682 5.02779C11.7723 4.94591 11.8848 4.90126 12.0008 4.90126C12.1167 4.90126 12.2292 4.94591 12.3195 5.02779L22.1208 14.1094C22.1714 14.1565 22.2297 14.1919 22.2925 14.2136C22.3553 14.2354 22.4213 14.243 22.4867 14.236C22.552 14.229 22.6156 14.2076 22.6736 14.173C22.7317 14.1384 22.7831 14.0913 22.8249 14.0344L23.8874 12.5812C23.9293 12.524 23.9606 12.458 23.9797 12.387C23.9988 12.3161 24.0052 12.2416 23.9986 12.1679C23.9921 12.0941 23.9726 12.0226 23.9413 11.9573C23.9101 11.8921 23.8677 11.8344 23.8166 11.7876Z" fill="#F8F8F8"/>
</g>
<defs>
<clipPath id="clip0_1_1035">
<rect width="24" height="24" fill="white"/>
</clipPath>
</defs>
</svg>
