<svg width="25" height="25" viewBox="0 0 25 25" fill="none" xmlns="http://www.w3.org/2000/svg">
<path d="M12.5 13.65C14.8817 13.65 16.8125 12.1054 16.8125 10.2C16.8125 8.29462 14.8817 6.75 12.5 6.75C10.1183 6.75 8.1875 8.29462 8.1875 10.2C8.1875 12.1054 10.1183 13.65 12.5 13.65Z" stroke="#3AA5E1" stroke-width="2" stroke-linecap="round" stroke-linejoin="round"/>
<path d="M12.5 1C9.45001 1 6.52494 1.96928 4.36827 3.69462C2.2116 5.41995 1 7.76001 1 10.2C1 12.3758 1.57787 13.7995 3.15625 15.375L12.5 24L21.8438 15.375C23.4221 13.7995 24 12.3758 24 10.2C24 7.76001 22.7884 5.41995 20.6317 3.69462C18.4751 1.96928 15.55 1 12.5 1V1Z" stroke="#3AA5E1" stroke-width="2" stroke-linecap="round" stroke-linejoin="round"/>
</svg>
