<svg width="50" height="50" viewBox="0 0 50 50" fill="none" xmlns="http://www.w3.org/2000/svg">
<path d="M33.1202 31.3672C34.3018 30.7324 35.6544 30.3711 37.0948 30.3711H37.0997C37.2462 30.3711 37.3145 30.1953 37.2071 30.0977C35.7091 28.7533 33.9979 27.6675 32.1436 26.8848C32.1241 26.875 32.1046 26.8701 32.085 26.8603C35.1172 24.6582 37.0899 21.0791 37.0899 17.041C37.0899 10.3516 31.6797 4.93164 25.0049 4.93164C18.3301 4.93164 12.9249 10.3516 12.9249 17.041C12.9249 21.0791 14.8975 24.6582 17.9346 26.8603C17.9151 26.8701 17.8956 26.875 17.876 26.8848C15.6934 27.8076 13.7354 29.1309 12.0508 30.8203C10.376 32.4921 9.04261 34.474 8.12506 36.6553C7.22229 38.7913 6.73508 41.0799 6.68952 43.3984C6.68821 43.4506 6.69735 43.5024 6.7164 43.5509C6.73545 43.5994 6.76401 43.6437 6.80042 43.681C6.83682 43.7183 6.88032 43.748 6.92836 43.7682C6.97641 43.7884 7.02801 43.7988 7.08014 43.7988H10.0049C10.2149 43.7988 10.3907 43.6279 10.3956 43.418C10.4932 39.6484 12.002 36.1182 14.6729 33.4424C17.4317 30.6738 21.1036 29.1504 25.0098 29.1504C27.7784 29.1504 30.4346 29.917 32.7247 31.3525C32.7835 31.3895 32.851 31.4103 32.9205 31.4129C32.9899 31.4155 33.0588 31.3997 33.1202 31.3672ZM25.0098 25.4395C22.7735 25.4395 20.669 24.5654 19.0821 22.9785C18.3013 22.1998 17.6823 21.2742 17.2608 20.2552C16.8393 19.2361 16.6236 18.1438 16.626 17.041C16.626 14.7998 17.5001 12.6904 19.0821 11.1035C20.6641 9.5166 22.7686 8.64258 25.0098 8.64258C27.251 8.64258 29.3506 9.5166 30.9376 11.1035C31.7183 11.8823 32.3373 12.8078 32.7589 13.8269C33.1804 14.8459 33.3961 15.9382 33.3936 17.041C33.3936 19.2822 32.5196 21.3916 30.9376 22.9785C29.3506 24.5654 27.2462 25.4395 25.0098 25.4395ZM42.9688 37.0605H38.8673V32.959C38.8673 32.7441 38.6915 32.5684 38.4766 32.5684H35.7423C35.5274 32.5684 35.3516 32.7441 35.3516 32.959V37.0605H31.2501C31.0352 37.0605 30.8594 37.2363 30.8594 37.4512V40.1855C30.8594 40.4004 31.0352 40.5762 31.2501 40.5762H35.3516V44.6777C35.3516 44.8926 35.5274 45.0684 35.7423 45.0684H38.4766C38.6915 45.0684 38.8673 44.8926 38.8673 44.6777V40.5762H42.9688C43.1837 40.5762 43.3594 40.4004 43.3594 40.1855V37.4512C43.3594 37.2363 43.1837 37.0605 42.9688 37.0605Z" fill="#F8F8F8"/>
</svg>
